<?xml version="1.0" standalone="no"?>
<!DOCTYPE svg PUBLIC "-//W3C//DTD SVG 20010904//EN"
 "http://www.w3.org/TR/2001/REC-SVG-20010904/DTD/svg10.dtd">
<svg version="1.0" xmlns="http://www.w3.org/2000/svg"
 width="640.000000pt" height="640.000000pt" viewBox="0 0 640.000000 640.000000"
 preserveAspectRatio="xMidYMid meet">
<metadata>
Created by potrace 1.11, written by Peter Selinger 2001-2013
</metadata>
<g transform="translate(0.000000,640.000000) scale(0.100000,-0.100000)"
fill="#000000" stroke="none">
<path d="M2845 6314 c-569 -62 -1147 -301 -1605 -664 -135 -107 -394 -365
-500 -500 -550 -694 -782 -1567 -649 -2437 188 -1237 1112 -2255 2324 -2563
306 -78 537 -104 850 -97 346 8 595 51 915 157 1179 391 2004 1417 2142 2665
15 144 15 490 -1 635 -68 614 -292 1162 -671 1640 -106 135 -365 393 -500 500
-465 369 -1037 603 -1623 665 -180 18 -503 18 -682 -1z m963 -1778 l-200
-1199 201 -201 202 -202 -838 -1117 c-461 -614 -839 -1112 -840 -1105 -2 7 87
546 196 1198 l199 1185 -199 200 c-110 110 -199 204 -199 208 0 8 1672 2239
1675 2235 1 -2 -88 -542 -197 -1202z"/>
</g>
</svg>
